<svg width="293" height="62" viewBox="0 0 293 62" fill="none" xmlns="http://www.w3.org/2000/svg">
<rect x="2.98738" y="2.98738" width="286.959" height="55.094" rx="8.96213" fill="#FFCE9F"/>
<rect x="2.98738" y="2.98738" width="286.959" height="55.094" rx="8.96213" stroke="#77390B" stroke-width="5.97475"/>
<path d="M31.7515 38.1453V21.4159H46.0909V23.8058H48.4808V28.5856H46.0909V30.9756H48.4808V35.7554H46.0909V38.1453H31.7515ZM36.5313 28.5856H43.701V23.8058H36.5313V28.5856ZM36.5313 35.7554H43.701V30.9756H36.5313V35.7554ZM50.8707 38.1453V26.1957H53.2606V23.8058H55.6505V21.4159H62.8202V23.8058H65.2101V26.1957H67.6V38.1453H62.8202V33.3655H55.6505V38.1453H50.8707ZM55.6505 30.9756H62.8202V26.1957H60.4303V23.8058H58.0404V26.1957H55.6505V30.9756ZM74.7698 38.1453V35.7554H72.3798V33.3655H69.9899V26.1957H72.3798V23.8058H74.7698V21.4159H84.3294V23.8058H86.7193V26.1957H81.9395V23.8058H77.1597V26.1957H74.7698V33.3655H77.1597V35.7554H81.9395V33.3655H86.7193V35.7554H84.3294V38.1453H74.7698ZM89.1092 38.1453V21.4159H93.889V28.5856H96.2789V26.1957H98.6688V23.8058H101.059V21.4159H105.838V23.8058H103.449V26.1957H101.059V28.5856H98.6688V30.9756H101.059V33.3655H103.449V35.7554H105.838V38.1453H98.6688V35.7554H96.2789V33.3655H93.889V38.1453H89.1092ZM134.517 38.1453V23.8058H129.737V21.4159H144.077V23.8058H139.297V38.1453H134.517ZM148.857 38.1453V35.7554H146.467V23.8058H148.857V21.4159H160.806V23.8058H163.196V35.7554H160.806V38.1453H148.857ZM151.247 35.7554H158.416V23.8058H151.247V35.7554ZM189.485 38.1453V35.7554H187.095V33.3655H184.705V26.1957H187.095V23.8058H189.485V21.4159H201.435V23.8058H191.875V26.1957H189.485V33.3655H191.875V35.7554H196.655V30.9756H194.265V28.5856H201.435V38.1453H189.485ZM203.824 38.1453V26.1957H206.214V23.8058H208.604V21.4159H215.774V23.8058H218.164V26.1957H220.554V38.1453H215.774V33.3655H208.604V38.1453H203.824ZM208.604 30.9756H215.774V26.1957H213.384V23.8058H210.994V26.1957H208.604V30.9756ZM222.944 38.1453V21.4159H227.723V23.8058H230.113V26.1957H232.503V23.8058H234.893V21.4159H239.673V38.1453H234.893V28.5856H232.503V33.3655H230.113V28.5856H227.723V38.1453H222.944ZM242.063 38.1453V21.4159H258.792V23.8058H246.843V28.5856H256.402V30.9756H246.843V35.7554H258.792V38.1453H242.063Z" fill="#820404"/>
</svg>
