<svg width="208" height="64" viewBox="0 0 208 64" fill="none" xmlns="http://www.w3.org/2000/svg">
<rect x="3.13964" y="3.13964" width="200.862" height="57.373" rx="9.41892" fill="#FFCE9F"/>
<rect x="3.13964" y="3.13964" width="200.862" height="57.373" rx="9.41892" stroke="#77390B" stroke-width="6.27928"/>
<path d="M38.2664 39.8145V37.3027H35.7546V34.791H33.2429V27.2559H35.7546V24.7442H38.2664V22.2325H48.3132V24.7442H50.8249V27.2559H45.8015V24.7442H40.7781V27.2559H38.2664V34.791H40.7781V37.3027H45.8015V34.791H50.8249V37.3027H48.3132V39.8145H38.2664ZM55.8483 39.8145V37.3027H53.3366V24.7442H55.8483V22.2325H68.4069V24.7442H70.9186V37.3027H68.4069V39.8145H55.8483ZM58.3601 37.3027H65.8952V24.7442H58.3601V37.3027ZM73.4303 39.8145V22.2325H78.4537V24.7442H80.9655V27.2559H83.4772V29.7676H85.9889V22.2325H91.0123V39.8145H85.9889V34.791H83.4772V32.2793H80.9655V29.7676H78.4537V39.8145H73.4303ZM93.524 39.8145V22.2325H111.106V24.7442H98.5474V29.7676H108.594V32.2793H98.5474V39.8145H93.524ZM116.129 39.8145V37.3027H121.153V24.7442H116.129V22.2325H131.2V24.7442H126.176V37.3027H131.2V39.8145H116.129ZM133.711 39.8145V22.2325H148.782V24.7442H151.293V32.2793H146.27V34.791H148.782V37.3027H151.293V39.8145H143.758V37.3027H141.247V34.791H138.735V39.8145H133.711ZM138.735 32.2793H143.758V29.7676H146.27V24.7442H138.735V32.2793ZM153.805 39.8145V22.2325H158.829V24.7442H161.34V27.2559H163.852V24.7442H166.364V22.2325H171.387V39.8145H166.364V29.7676H163.852V34.791H161.34V29.7676H158.829V39.8145H153.805Z" fill="#820404"/>
</svg>
