<svg width="316" height="74" viewBox="0 0 316 74" fill="none" xmlns="http://www.w3.org/2000/svg">
<rect x="3.64252" y="3.64252" width="308.715" height="66.5972" rx="10.9276" fill="#FFCE9F"/>
<rect x="3.64252" y="3.64252" width="308.715" height="66.5972" rx="10.9276" stroke="#77390B" stroke-width="7.28504"/>
<path d="M41.4393 46.0274V25.6293H47.2673V34.3713H56.0094V25.6293H61.8374V46.0274H56.0094V37.2853H47.2673V46.0274H41.4393ZM64.7514 46.0274V25.6293H85.1496V28.5433H70.5795V34.3713H82.2355V37.2853H70.5795V43.1134H85.1496V46.0274H64.7514ZM90.9776 46.0274V25.6293H96.8056V43.1134H108.462V46.0274H90.9776ZM111.376 46.0274V25.6293H128.86V28.5433H131.774V37.2853H128.86V40.1994H117.204V46.0274H111.376ZM117.204 37.2853H125.946V28.5433H117.204V37.2853ZM166.742 46.0274V28.5433H160.914V25.6293H178.398V28.5433H172.57V46.0274H166.742ZM184.226 46.0274V43.1134H181.312V28.5433H184.226V25.6293H198.796V28.5433H201.71V43.1134H198.796V46.0274H184.226ZM187.14 43.1134H195.882V28.5433H187.14V43.1134ZM204.624 46.0274V25.6293H219.194V28.5433H222.108V31.4573H225.022V40.1994H222.108V43.1134H219.194V46.0274H204.624ZM210.452 43.1134H216.28V40.1994H219.194V31.4573H216.28V28.5433H210.452V43.1134ZM227.936 46.0274V31.4573H230.85V28.5433H233.764V25.6293H242.507V28.5433H245.421V31.4573H248.335V46.0274H242.507V40.1994H233.764V46.0274H227.936ZM233.764 37.2853H242.507V31.4573H239.593V28.5433H236.678V31.4573H233.764V37.2853ZM259.991 46.0274V37.2853H257.077V34.3713H254.163V25.6293H259.991V34.3713H265.819V25.6293H271.647V34.3713H268.733V37.2853H265.819V46.0274H259.991Z" fill="#820404"/>
</svg>
