<svg width="399" height="123" viewBox="0 0 399 123" fill="none" xmlns="http://www.w3.org/2000/svg">
<rect x="17.0078" width="364.093" height="4.71534" fill="#77390B"/>
<rect x="17.0078" y="117.876" width="364.093" height="4.71534" fill="#77390B"/>
<rect x="381.109" y="4.72119" width="6.80548" height="4.71534" fill="#77390B"/>
<rect width="6.80548" height="4.71534" transform="matrix(-1 0 0 1 17.0078 4.72119)" fill="#77390B"/>
<rect x="387.921" y="9.43445" width="3.40274" height="4.71534" fill="#77390B"/>
<rect width="3.40274" height="4.71534" transform="matrix(-1 0 0 1 10.2129 9.43445)" fill="#77390B"/>
<rect x="391.314" y="14.1394" width="3.40274" height="4.71534" fill="#77390B"/>
<rect width="3.40274" height="4.71534" transform="matrix(-1 0 0 1 6.81738 14.1394)" fill="#77390B"/>
<rect x="394.716" y="18.8606" width="3.40274" height="84.8762" fill="#77390B"/>
<rect width="3.40274" height="84.8762" transform="matrix(-1 0 0 1 3.40332 18.8606)" fill="#77390B"/>
<rect x="391.314" y="103.737" width="3.40274" height="4.71534" fill="#77390B"/>
<rect width="3.40274" height="4.71534" transform="matrix(-1 0 0 1 6.81738 103.737)" fill="#77390B"/>
<rect x="387.921" y="108.458" width="3.40274" height="4.71534" fill="#77390B"/>
<rect width="3.40274" height="4.71534" transform="matrix(-1 0 0 1 10.2129 108.458)" fill="#77390B"/>
<rect x="381.109" y="113.163" width="6.80548" height="4.71534" fill="#77390B"/>
<rect width="6.80548" height="4.71534" transform="matrix(-1 0 0 1 17.0078 113.163)" fill="#77390B"/>
<rect x="17.0078" y="4.72119" width="364.093" height="113.168" fill="#9F4E13"/>
<rect x="381.109" y="9.43445" width="6.80548" height="103.738" fill="#9F4E13"/>
<rect x="387.921" y="14.1394" width="3.40274" height="94.3068" fill="#9F4E13"/>
<rect x="391.314" y="18.8606" width="3.40274" height="84.8762" fill="#9F4E13"/>
<rect x="3.40332" y="18.8606" width="3.40274" height="84.8762" fill="#9F4E13"/>
<rect x="6.81738" y="14.1394" width="3.40274" height="94.3068" fill="#9F4E13"/>
<rect x="10.2129" y="9.43445" width="6.80548" height="103.738" fill="#9F4E13"/>
<rect x="25.3008" y="10.458" width="346.892" height="3.88322" fill="#77390B"/>
<rect x="25.3008" y="107.538" width="346.892" height="3.88322" fill="#77390B"/>
<rect x="372.182" y="14.3461" width="6.48396" height="3.88322" fill="#77390B"/>
<rect width="6.48396" height="3.88322" transform="matrix(-1 0 0 1 25.3008 14.3461)" fill="#77390B"/>
<rect x="378.674" y="18.2178" width="3.24198" height="3.88322" fill="#77390B"/>
<rect width="3.24198" height="3.88322" transform="matrix(-1 0 0 1 18.8096 18.2178)" fill="#77390B"/>
<rect x="381.91" y="22.1061" width="3.24198" height="3.88322" fill="#77390B"/>
<rect width="3.24198" height="3.88322" transform="matrix(-1 0 0 1 15.5791 22.1061)" fill="#77390B"/>
<rect x="385.156" y="25.994" width="3.24198" height="69.898" fill="#77390B"/>
<rect width="3.24198" height="69.898" transform="matrix(-1 0 0 1 12.334 25.994)" fill="#77390B"/>
<rect x="381.91" y="95.8817" width="3.24198" height="3.88322" fill="#77390B"/>
<rect width="3.24198" height="3.88322" transform="matrix(-1 0 0 1 15.5791 95.8817)" fill="#77390B"/>
<rect x="378.674" y="99.77" width="3.24198" height="3.88322" fill="#77390B"/>
<rect width="3.24198" height="3.88322" transform="matrix(-1 0 0 1 18.8096 99.77)" fill="#77390B"/>
<rect x="372.182" y="103.658" width="6.48396" height="3.88322" fill="#77390B"/>
<rect width="6.48396" height="3.88322" transform="matrix(-1 0 0 1 25.3008 103.658)" fill="#77390B"/>
<rect x="25.3008" y="14.3461" width="346.892" height="93.1973" fill="#FFCE9F"/>
<rect x="372.182" y="18.2178" width="6.48396" height="85.4309" fill="#FFCE9F"/>
<rect x="378.674" y="22.1061" width="3.24198" height="77.6645" fill="#FFCE9F"/>
<rect x="381.91" y="25.994" width="3.24198" height="69.898" fill="#FFCE9F"/>
<rect x="12.334" y="25.994" width="3.24198" height="69.898" fill="#FFCE9F"/>
<rect x="15.5791" y="22.1061" width="3.24198" height="77.6645" fill="#FFCE9F"/>
<rect x="18.8096" y="18.2178" width="6.48396" height="85.4309" fill="#FFCE9F"/>
<path d="M23 77.5V46H32V73H50V77.5H23ZM54.5 77.5V46H86V50.5H63.5V59.5H81.5V64H63.5V73H86V77.5H54.5ZM90.5 77.5V55H95V50.5H99.5V46H113V50.5H117.5V55H122V77.5H113V68.5H99.5V77.5H90.5ZM99.5 64H113V55H108.5V50.5H104V55H99.5V64ZM126.5 77.5V46H153.5V50.5H158V64H149V68.5H153.5V73H158V77.5H144.5V73H140V68.5H135.5V77.5H126.5ZM135.5 64H144.5V59.5H149V50.5H135.5V64ZM162.5 77.5V46H171.5V50.5H176V55H180.5V59.5H185V46H194V77.5H185V68.5H180.5V64H176V59.5H171.5V77.5H162.5ZM234.5 77.5V46H243.5V50.5H248V55H252.5V50.5H257V46H266V77.5H257V59.5H252.5V68.5H248V59.5H243.5V77.5H234.5ZM275 77.5V73H270.5V50.5H275V46H297.5V50.5H302V73H297.5V77.5H275ZM279.5 73H293V50.5H279.5V73ZM306.5 77.5V46H333.5V50.5H338V64H329V68.5H333.5V73H338V77.5H324.5V73H320V68.5H315.5V77.5H306.5ZM315.5 64H324.5V59.5H329V50.5H315.5V64ZM342.5 77.5V46H374V50.5H351.5V59.5H369.5V64H351.5V73H374V77.5H342.5Z" fill="#820303"/>
</svg>
