<svg width="194" height="74" viewBox="0 0 194 74" fill="none" xmlns="http://www.w3.org/2000/svg">
<rect x="3.64252" y="3.64252" width="186.451" height="66.5972" rx="10.9276" fill="#FFCE9F"/>
<rect x="3.64252" y="3.64252" width="186.451" height="66.5972" rx="10.9276" stroke="#77390B" stroke-width="7.28504"/>
<path d="M41.5017 46.0271V43.1131H38.5877V40.1991H44.4157V43.1131H53.1578V37.2851H41.5017V34.3711H38.5877V28.543H41.5017V25.629H56.0718V28.543H58.9858V31.4571H53.1578V28.543H44.4157V34.3711H56.0718V37.2851H58.9858V43.1131H56.0718V46.0271H41.5017ZM70.6419 46.0271V28.543H64.8138V25.629H82.298V28.543H76.4699V46.0271H70.6419ZM85.212 46.0271V31.4571H88.126V28.543H91.04V25.629H99.7821V28.543H102.696V31.4571H105.61V46.0271H99.7821V40.1991H91.04V46.0271H85.212ZM91.04 37.2851H99.7821V31.4571H96.868V28.543H93.954V31.4571H91.04V37.2851ZM108.524 46.0271V25.629H126.008V28.543H128.922V37.2851H123.094V40.1991H126.008V43.1131H128.922V46.0271H120.18V43.1131H117.266V40.1991H114.352V46.0271H108.524ZM114.352 37.2851H120.18V34.3711H123.094V28.543H114.352V37.2851ZM140.578 46.0271V28.543H134.75V25.629H152.234V28.543H146.406V46.0271H140.578Z" fill="#820404"/>
</svg>
