<svg width="316" height="74" viewBox="0 0 316 74" fill="none" xmlns="http://www.w3.org/2000/svg">
<rect x="3.64252" y="3.64252" width="308.715" height="66.5972" rx="10.9276" fill="#FFCE9F"/>
<rect x="3.64252" y="3.64252" width="308.715" height="66.5972" rx="10.9276" stroke="#77390B" stroke-width="7.28504"/>
<path d="M102.634 46.0274V43.1134H99.7196V40.1994H105.548V43.1134H114.29V37.2853H102.634V34.3713H99.7196V28.5433H102.634V25.6293H117.204V28.5433H120.118V31.4573H114.29V28.5433H105.548V34.3713H117.204V37.2853H120.118V43.1134H117.204V46.0274H102.634ZM131.774 46.0274V28.5433H125.946V25.6293H143.43V28.5433H137.602V46.0274H131.774ZM146.344 46.0274V31.4573H149.258V28.5433H152.172V25.6293H160.914V28.5433H163.828V31.4573H166.742V46.0274H160.914V40.1994H152.172V46.0274H146.344ZM152.172 37.2853H160.914V31.4573H158V28.5433H155.086V31.4573H152.172V37.2853ZM169.656 46.0274V25.6293H187.14V28.5433H190.054V37.2853H184.226V40.1994H187.14V43.1134H190.054V46.0274H181.312V43.1134H178.398V40.1994H175.484V46.0274H169.656ZM175.484 37.2853H181.312V34.3713H184.226V28.5433H175.484V37.2853ZM201.71 46.0274V28.5433H195.882V25.6293H213.366V28.5433H207.538V46.0274H201.71Z" fill="#820404"/>
</svg>
