<svg width="401" height="436" viewBox="0 0 401 436" fill="none" xmlns="http://www.w3.org/2000/svg">
<rect x="3.13964" y="3.13964" width="394.721" height="429.721" rx="17.7913" fill="#FFCE9F"/>
<rect x="3.13964" y="3.13964" width="394.721" height="429.721" rx="17.7913" stroke="#77390B" stroke-width="6.27928"/>
<path d="M103.891 60.2861H107.056C106.995 61.6641 106.716 62.8371 106.219 63.8051C105.722 64.7645 105.007 65.4971 104.074 66.0029C103.149 66.5087 102.02 66.7616 100.686 66.7616C99.674 66.7616 98.767 66.5785 97.9646 66.2122C97.171 65.8459 96.4951 65.3183 95.9369 64.6293C95.3788 63.9316 94.9514 63.0813 94.6549 62.0783C94.3671 61.0754 94.2232 59.9373 94.2232 58.664V55.2889C94.2232 54.0156 94.3715 52.8775 94.668 51.8745C94.9732 50.8716 95.4093 50.0213 95.9762 49.3236C96.543 48.6259 97.232 48.0982 98.0431 47.7407C98.8629 47.3744 99.7873 47.1912 100.816 47.1912C102.133 47.1912 103.241 47.4441 104.139 47.95C105.038 48.4558 105.731 49.1971 106.219 50.1739C106.708 51.1507 106.991 52.3411 107.07 53.7452H103.904C103.86 52.7946 103.729 52.0359 103.511 51.469C103.302 50.8934 102.979 50.4791 102.543 50.2262C102.116 49.9733 101.54 49.8468 100.816 49.8468C100.215 49.8468 99.6958 49.9602 99.2597 50.187C98.8324 50.4137 98.4792 50.7538 98.2001 51.2073C97.9297 51.6521 97.7248 52.2146 97.5852 52.8949C97.4544 53.5664 97.389 54.3557 97.389 55.2627V58.664C97.389 59.5361 97.4457 60.3079 97.5591 60.9795C97.6724 61.651 97.8556 62.2222 98.1085 62.6932C98.3614 63.1554 98.6972 63.5086 99.1158 63.7528C99.5344 63.9883 100.058 64.106 100.686 64.106C101.436 64.106 102.033 63.9883 102.478 63.7528C102.931 63.5173 103.267 63.1205 103.485 62.5624C103.703 62.0042 103.838 61.2455 103.891 60.2861ZM116.593 63.1641V52.3455H119.641V66.5H116.776L116.593 63.1641ZM117.025 60.2076L117.993 60.1815C117.993 61.1321 117.906 62.0086 117.731 62.8109C117.557 63.6133 117.286 64.311 116.92 64.904C116.563 65.4883 116.096 65.9462 115.52 66.2776C114.954 66.6003 114.269 66.7616 113.467 66.7616C112.891 66.7616 112.363 66.6613 111.884 66.4608C111.404 66.2602 110.99 65.9506 110.641 65.5319C110.292 65.1133 110.022 64.5682 109.83 63.8967C109.638 63.2252 109.542 62.4228 109.542 61.4897V52.3455H112.59V61.5158C112.59 62.0217 112.634 62.4446 112.721 62.7848C112.808 63.1162 112.93 63.3865 113.087 63.5958C113.244 63.7964 113.419 63.9403 113.61 64.0275C113.811 64.106 114.025 64.1453 114.251 64.1453C114.94 64.1453 115.486 63.9752 115.887 63.6351C116.297 63.2862 116.589 62.8153 116.763 62.2222C116.938 61.6292 117.025 60.9577 117.025 60.2076ZM129.243 62.7717C129.243 62.4752 129.156 62.2135 128.982 61.9868C128.816 61.7513 128.546 61.5202 128.171 61.2934C127.796 61.0667 127.294 60.8225 126.666 60.5608C126.012 60.2905 125.432 60.0201 124.926 59.7498C124.42 59.4794 123.993 59.1829 123.644 58.8602C123.295 58.5288 123.029 58.1494 122.846 57.7221C122.663 57.2948 122.572 56.7976 122.572 56.2308C122.572 55.6464 122.681 55.1057 122.899 54.6086C123.117 54.1115 123.431 53.6754 123.84 53.3004C124.25 52.9167 124.743 52.6202 125.319 52.4109C125.894 52.1928 126.544 52.0838 127.268 52.0838C128.288 52.0838 129.16 52.2713 129.884 52.6463C130.617 53.0126 131.175 53.5272 131.559 54.19C131.951 54.8441 132.147 55.5985 132.147 56.4532H129.099C129.099 56.0956 129.034 55.7729 128.903 55.4851C128.772 55.1886 128.572 54.9531 128.301 54.7787C128.031 54.5955 127.687 54.504 127.268 54.504C126.884 54.504 126.561 54.5781 126.3 54.7264C126.047 54.8659 125.855 55.0578 125.724 55.302C125.602 55.5374 125.541 55.8034 125.541 56.0999C125.541 56.318 125.58 56.5098 125.659 56.6755C125.737 56.8412 125.868 57.0026 126.051 57.1596C126.234 57.3078 126.479 57.4605 126.784 57.6174C127.098 57.7744 127.495 57.9532 127.974 58.1538C128.925 58.5201 129.714 58.8995 130.342 59.2919C130.97 59.6844 131.441 60.1422 131.755 60.6655C132.069 61.1888 132.226 61.8385 132.226 62.6147C132.226 63.2426 132.108 63.8095 131.873 64.3153C131.646 64.8212 131.315 65.2572 130.878 65.6235C130.451 65.9898 129.932 66.2732 129.322 66.4738C128.72 66.6657 128.048 66.7616 127.307 66.7616C126.2 66.7616 125.262 66.5436 124.495 66.1075C123.736 65.6628 123.16 65.0915 122.768 64.3938C122.375 63.6961 122.179 62.9592 122.179 62.183H125.122C125.149 62.7412 125.266 63.1772 125.476 63.4912C125.694 63.8051 125.968 64.0232 126.3 64.1453C126.631 64.2586 126.976 64.3153 127.333 64.3153C127.761 64.3153 128.114 64.2586 128.393 64.1453C128.672 64.0232 128.881 63.8444 129.021 63.6089C129.169 63.3734 129.243 63.0944 129.243 62.7717ZM140.598 52.3455V54.7002H133.652V52.3455H140.598ZM135.549 48.8788H138.584V62.5493C138.584 62.9853 138.632 63.3168 138.728 63.5435C138.824 63.7703 138.959 63.9229 139.133 64.0014C139.308 64.0799 139.512 64.1191 139.748 64.1191C139.922 64.1191 140.092 64.106 140.258 64.0799C140.433 64.045 140.559 64.0145 140.638 63.9883V66.4477C140.411 66.5349 140.149 66.609 139.853 66.6701C139.556 66.7311 139.199 66.7616 138.78 66.7616C138.161 66.7616 137.607 66.6352 137.119 66.3823C136.63 66.1206 136.246 65.6976 135.967 65.1133C135.688 64.5203 135.549 63.7354 135.549 62.7586V48.8788ZM142.181 59.9983V58.8602C142.181 57.7613 142.316 56.7889 142.587 55.943C142.857 55.097 143.241 54.3906 143.738 53.8237C144.244 53.2481 144.837 52.8164 145.517 52.5286C146.197 52.2321 146.947 52.0838 147.767 52.0838C148.604 52.0838 149.363 52.2321 150.043 52.5286C150.732 52.8164 151.325 53.2481 151.823 53.8237C152.328 54.3906 152.716 55.097 152.987 55.943C153.257 56.7889 153.392 57.7613 153.392 58.8602V59.9983C153.392 61.0972 153.257 62.0696 152.987 62.9156C152.716 63.7615 152.328 64.4723 151.823 65.0479C151.325 65.6148 150.737 66.0421 150.056 66.3299C149.376 66.6177 148.622 66.7616 147.793 66.7616C146.974 66.7616 146.219 66.6177 145.53 66.3299C144.85 66.0421 144.257 65.6148 143.751 65.0479C143.245 64.4723 142.857 63.7615 142.587 62.9156C142.316 62.0696 142.181 61.0972 142.181 59.9983ZM145.229 58.8602V59.9983C145.229 60.7047 145.29 61.324 145.412 61.8559C145.535 62.3792 145.709 62.8153 145.936 63.1641C146.162 63.513 146.433 63.7746 146.747 63.949C147.061 64.1235 147.41 64.2107 147.793 64.2107C148.221 64.2107 148.591 64.1235 148.905 63.949C149.228 63.7746 149.494 63.513 149.703 63.1641C149.921 62.8153 150.083 62.3792 150.187 61.8559C150.292 61.324 150.344 60.7047 150.344 59.9983V58.8602C150.344 58.1625 150.283 57.552 150.161 57.0288C150.039 56.4968 149.865 56.0563 149.638 55.7075C149.411 55.3499 149.136 55.0839 148.814 54.9095C148.5 54.7351 148.151 54.6479 147.767 54.6479C147.392 54.6479 147.048 54.7351 146.734 54.9095C146.428 55.0839 146.162 55.3499 145.936 55.7075C145.709 56.0563 145.535 56.4968 145.412 57.0288C145.29 57.552 145.229 58.1625 145.229 58.8602ZM159.083 55.2235V66.5H156.035V52.3455H158.9L159.083 55.2235ZM158.586 58.9125H157.552C157.535 57.927 157.622 57.02 157.814 56.1915C158.015 55.363 158.311 54.6391 158.704 54.0199C159.105 53.4007 159.606 52.9254 160.208 52.594C160.818 52.2539 161.52 52.0838 162.314 52.0838C162.846 52.0838 163.335 52.1798 163.779 52.3716C164.233 52.5548 164.625 52.8469 164.957 53.2481C165.297 53.6493 165.558 54.1638 165.742 54.7918C165.925 55.4197 166.016 56.1784 166.016 57.068V66.5H162.968V57.3558C162.968 56.6755 162.89 56.1435 162.733 55.7598C162.584 55.3674 162.366 55.0883 162.079 54.9226C161.791 54.7569 161.442 54.674 161.032 54.674C160.587 54.674 160.208 54.7874 159.894 55.0142C159.58 55.2322 159.327 55.5374 159.135 55.9299C158.943 56.3136 158.804 56.7628 158.717 57.2773C158.629 57.7831 158.586 58.3282 158.586 58.9125ZM165.82 58.1015L164.394 58.4285C164.377 57.5651 164.464 56.7497 164.656 55.9822C164.848 55.2147 165.135 54.5432 165.519 53.9676C165.912 53.3833 166.4 52.9254 166.984 52.594C167.577 52.2539 168.262 52.0838 169.038 52.0838C169.649 52.0838 170.194 52.1841 170.673 52.3847C171.153 52.5766 171.563 52.8818 171.903 53.3004C172.243 53.7191 172.501 54.2641 172.675 54.9357C172.858 55.5985 172.95 56.4052 172.95 57.3558V66.5H169.889V57.3427C169.889 56.6363 169.81 56.0912 169.653 55.7075C169.505 55.3238 169.287 55.0578 168.999 54.9095C168.711 54.7525 168.367 54.674 167.965 54.674C167.617 54.674 167.307 54.7656 167.037 54.9487C166.775 55.1232 166.553 55.3674 166.369 55.6813C166.186 55.9953 166.047 56.3616 165.951 56.7802C165.864 57.1901 165.82 57.6305 165.82 58.1015ZM179.268 52.3455V66.5H176.22V52.3455H179.268ZM176.063 48.6302C176.063 48.1418 176.211 47.7363 176.508 47.4136C176.804 47.0909 177.219 46.9296 177.751 46.9296C178.283 46.9296 178.697 47.0909 178.993 47.4136C179.29 47.7363 179.438 48.1418 179.438 48.6302C179.438 49.1099 179.29 49.5111 178.993 49.8337C178.697 50.1564 178.283 50.3178 177.751 50.3178C177.219 50.3178 176.804 50.1564 176.508 49.8337C176.211 49.5111 176.063 49.1099 176.063 48.6302ZM191.879 63.936V66.5H183.088V63.936H191.879ZM191.709 54.3339L184.108 66.5H182.133V64.4331L189.707 52.3455H191.709V54.3339ZM190.558 52.3455V54.9226H182.225V52.3455H190.558ZM199.689 66.7616C198.773 66.7616 197.958 66.6265 197.243 66.3561C196.527 66.077 195.921 65.6671 195.424 65.1264C194.927 64.577 194.548 63.9054 194.286 63.1118C194.024 62.3095 193.894 61.3806 193.894 60.3254V58.9649C193.894 57.7701 194.029 56.741 194.299 55.8776C194.578 55.0054 194.962 54.2903 195.45 53.7321C195.939 53.174 196.514 52.7597 197.177 52.4894C197.849 52.219 198.577 52.0838 199.362 52.0838C200.251 52.0838 201.023 52.2277 201.677 52.5155C202.331 52.8033 202.868 53.235 203.286 53.8106C203.714 54.3862 204.028 55.097 204.228 55.943C204.438 56.7889 204.542 57.7613 204.542 58.8602V60.3908H195.359V58.0884H201.533V57.7613C201.516 57.116 201.438 56.5622 201.298 56.0999C201.158 55.629 200.932 55.2714 200.618 55.0272C200.312 54.7743 199.89 54.6479 199.349 54.6479C198.956 54.6479 198.607 54.722 198.302 54.8703C197.997 55.0185 197.744 55.2583 197.544 55.5898C197.352 55.9212 197.203 56.3659 197.099 56.9241C196.994 57.4735 196.942 58.1538 196.942 58.9649V60.3254C196.942 61.0318 197.003 61.6292 197.125 62.1176C197.256 62.606 197.448 63.0072 197.7 63.3211C197.953 63.6264 198.259 63.8531 198.616 64.0014C198.983 64.1409 199.405 64.2107 199.885 64.2107C200.592 64.2107 201.198 64.0799 201.704 63.8182C202.218 63.5479 202.663 63.199 203.038 62.7717L204.385 64.6424C204.132 64.9825 203.792 65.3183 203.365 65.6497C202.938 65.9724 202.419 66.2384 201.808 66.4477C201.206 66.657 200.5 66.7616 199.689 66.7616ZM215.439 47.4529L218.788 56.4793L222.137 47.4529H225.643L220.384 59.4881V66.5H217.179V59.4881L211.92 47.4529H215.439ZM226.193 59.9983V58.8602C226.193 57.7613 226.328 56.7889 226.598 55.943C226.869 55.097 227.252 54.3906 227.749 53.8237C228.255 53.2481 228.848 52.8164 229.529 52.5286C230.209 52.2321 230.959 52.0838 231.779 52.0838C232.616 52.0838 233.375 52.2321 234.055 52.5286C234.744 52.8164 235.337 53.2481 235.834 53.8237C236.34 54.3906 236.728 55.097 236.998 55.943C237.269 56.7889 237.404 57.7613 237.404 58.8602V59.9983C237.404 61.0972 237.269 62.0696 236.998 62.9156C236.728 63.7615 236.34 64.4723 235.834 65.0479C235.337 65.6148 234.748 66.0421 234.068 66.3299C233.388 66.6177 232.633 66.7616 231.805 66.7616C230.985 66.7616 230.231 66.6177 229.542 66.3299C228.861 66.0421 228.268 65.6148 227.763 65.0479C227.257 64.4723 226.869 63.7615 226.598 62.9156C226.328 62.0696 226.193 61.0972 226.193 59.9983ZM229.241 58.8602V59.9983C229.241 60.7047 229.302 61.324 229.424 61.8559C229.546 62.3792 229.72 62.8153 229.947 63.1641C230.174 63.513 230.444 63.7746 230.758 63.949C231.072 64.1235 231.421 64.2107 231.805 64.2107C232.232 64.2107 232.603 64.1235 232.917 63.949C233.239 63.7746 233.505 63.513 233.715 63.1641C233.933 62.8153 234.094 62.3792 234.199 61.8559C234.303 61.324 234.356 60.7047 234.356 59.9983V58.8602C234.356 58.1625 234.295 57.552 234.173 57.0288C234.051 56.4968 233.876 56.0563 233.649 55.7075C233.423 55.3499 233.148 55.0839 232.825 54.9095C232.511 54.7351 232.162 54.6479 231.779 54.6479C231.404 54.6479 231.059 54.7351 230.745 54.9095C230.44 55.0839 230.174 55.3499 229.947 55.7075C229.72 56.0563 229.546 56.4968 229.424 57.0288C229.302 57.552 229.241 58.1625 229.241 58.8602ZM247.019 63.1641V52.3455H250.067V66.5H247.202L247.019 63.1641ZM247.451 60.2076L248.419 60.1815C248.419 61.1321 248.332 62.0086 248.157 62.8109C247.983 63.6133 247.712 64.311 247.346 64.904C246.988 65.4883 246.522 65.9462 245.946 66.2776C245.379 66.6003 244.695 66.7616 243.892 66.7616C243.317 66.7616 242.789 66.6613 242.31 66.4608C241.83 66.2602 241.416 65.9506 241.067 65.5319C240.718 65.1133 240.448 64.5682 240.256 63.8967C240.064 63.2252 239.968 62.4228 239.968 61.4897V52.3455H243.016V61.5158C243.016 62.0217 243.06 62.4446 243.147 62.7848C243.234 63.1162 243.356 63.3865 243.513 63.5958C243.67 63.7964 243.844 63.9403 244.036 64.0275C244.237 64.106 244.451 64.1453 244.677 64.1453C245.366 64.1453 245.911 63.9752 246.313 63.6351C246.722 63.2862 247.015 62.8153 247.189 62.2222C247.363 61.6292 247.451 60.9577 247.451 60.2076ZM256.163 55.0796V66.5H253.115V52.3455H256.019L256.163 55.0796ZM259.578 52.2539L259.564 55.2627C259.39 55.2191 259.203 55.1929 259.002 55.1842C258.81 55.1668 258.618 55.1581 258.426 55.1581C258.008 55.1581 257.646 55.2322 257.341 55.3804C257.035 55.5287 256.778 55.7424 256.569 56.0215C256.359 56.3005 256.194 56.6363 256.072 57.0288C255.958 57.4212 255.888 57.866 255.862 58.3631L255.208 58.3893C255.208 57.4997 255.278 56.6755 255.418 55.9168C255.557 55.1493 255.766 54.4822 256.045 53.9153C256.333 53.3397 256.691 52.8905 257.118 52.5678C257.546 52.2452 258.043 52.0838 258.609 52.0838C258.766 52.0838 258.945 52.1013 259.146 52.1361C259.346 52.171 259.49 52.2103 259.578 52.2539ZM276.283 61.5812C276.283 61.1888 276.239 60.8399 276.152 60.5347C276.074 60.2207 275.921 59.9373 275.694 59.6844C275.468 59.4315 275.145 59.1829 274.726 58.9387C274.316 58.6945 273.784 58.446 273.13 58.193C272.38 57.9052 271.678 57.5913 271.024 57.2511C270.379 56.9023 269.808 56.5098 269.31 56.0738C268.822 55.629 268.438 55.1101 268.159 54.517C267.88 53.924 267.741 53.235 267.741 52.4501C267.741 51.6739 267.876 50.9675 268.146 50.3309C268.425 49.6855 268.818 49.1317 269.324 48.6695C269.838 48.1985 270.449 47.8366 271.155 47.5837C271.861 47.322 272.642 47.1912 273.497 47.1912C274.726 47.1912 275.777 47.4529 276.649 47.9761C277.53 48.4994 278.202 49.2015 278.664 50.0823C279.135 50.9631 279.37 51.9399 279.37 53.0126H276.205C276.205 52.3934 276.109 51.844 275.917 51.3643C275.725 50.8847 275.428 50.5096 275.027 50.2393C274.626 49.9689 274.107 49.8337 273.47 49.8337C272.886 49.8337 272.402 49.9471 272.018 50.1739C271.643 50.4006 271.364 50.7102 271.181 51.1027C271.007 51.4951 270.92 51.9443 270.92 52.4501C270.92 52.799 270.994 53.1173 271.142 53.4051C271.29 53.6842 271.504 53.9414 271.783 54.1769C272.062 54.4124 272.402 54.6348 272.803 54.8441C273.204 55.0534 273.667 55.254 274.19 55.4459C275.08 55.7685 275.856 56.1261 276.519 56.5186C277.181 56.911 277.726 57.3514 278.154 57.8398C278.59 58.3195 278.913 58.8646 279.122 59.4751C279.34 60.0855 279.449 60.7789 279.449 61.5551C279.449 62.34 279.314 63.0551 279.043 63.7005C278.782 64.3371 278.398 64.8822 277.892 65.3357C277.386 65.7892 276.776 66.1424 276.061 66.3953C275.346 66.6395 274.543 66.7616 273.654 66.7616C272.834 66.7616 272.045 66.6395 271.286 66.3953C270.536 66.1512 269.864 65.7805 269.271 65.2834C268.678 64.7776 268.207 64.1453 267.858 63.3865C267.518 62.6278 267.348 61.7382 267.348 60.7178H270.527C270.527 61.3283 270.601 61.8516 270.749 62.2877C270.898 62.715 271.111 63.0682 271.39 63.3473C271.678 63.6176 272.014 63.8182 272.398 63.949C272.79 64.0711 273.226 64.1322 273.706 64.1322C274.299 64.1322 274.783 64.0275 275.158 63.8182C275.542 63.6002 275.825 63.2993 276.008 62.9156C276.191 62.5318 276.283 62.0871 276.283 61.5812ZM289.038 63.1641V52.3455H292.086V66.5H289.221L289.038 63.1641ZM289.47 60.2076L290.438 60.1815C290.438 61.1321 290.35 62.0086 290.176 62.8109C290.002 63.6133 289.731 64.311 289.365 64.904C289.007 65.4883 288.541 65.9462 287.965 66.2776C287.398 66.6003 286.714 66.7616 285.911 66.7616C285.336 66.7616 284.808 66.6613 284.328 66.4608C283.849 66.2602 283.434 65.9506 283.086 65.5319C282.737 65.1133 282.466 64.5682 282.275 63.8967C282.083 63.2252 281.987 62.4228 281.987 61.4897V52.3455H285.035V61.5158C285.035 62.0217 285.078 62.4446 285.166 62.7848C285.253 63.1162 285.375 63.3865 285.532 63.5958C285.689 63.7964 285.863 63.9403 286.055 64.0275C286.256 64.106 286.469 64.1453 286.696 64.1453C287.385 64.1453 287.93 63.9752 288.331 63.6351C288.741 63.2862 289.033 62.8153 289.208 62.2222C289.382 61.6292 289.47 60.9577 289.47 60.2076ZM298.365 52.3455V66.5H295.317V52.3455H298.365ZM295.16 48.6302C295.16 48.1418 295.308 47.7363 295.605 47.4136C295.901 47.0909 296.316 46.9296 296.848 46.9296C297.38 46.9296 297.794 47.0909 298.09 47.4136C298.387 47.7363 298.535 48.1418 298.535 48.6302C298.535 49.1099 298.387 49.5111 298.09 49.8337C297.794 50.1564 297.38 50.3178 296.848 50.3178C296.316 50.3178 295.901 50.1564 295.605 49.8337C295.308 49.5111 295.16 49.1099 295.16 48.6302ZM307.339 52.3455V54.7002H300.393V52.3455H307.339ZM302.29 48.8788H305.325V62.5493C305.325 62.9853 305.373 63.3168 305.469 63.5435C305.565 63.7703 305.7 63.9229 305.874 64.0014C306.049 64.0799 306.254 64.1191 306.489 64.1191C306.663 64.1191 306.833 64.106 306.999 64.0799C307.174 64.045 307.3 64.0145 307.379 63.9883V66.4477C307.152 66.5349 306.89 66.609 306.594 66.6701C306.297 66.7311 305.94 66.7616 305.521 66.7616C304.902 66.7616 304.348 66.6352 303.86 66.3823C303.371 66.1206 302.987 65.6976 302.708 65.1133C302.429 64.5203 302.29 63.7354 302.29 62.7586V48.8788Z" fill="black"/>
</svg>
